<svg width="480" height="231" viewBox="0 0 480 231" fill="none" xmlns="http://www.w3.org/2000/svg">
<g filter="url(#filter0_d_109_224)">
<rect x="25" y="25" width="430" height="181" rx="10" fill="white"/>
</g>
<rect x="61" y="120" width="358" height="50" rx="2" fill="black"/>
<path d="M229.13 154.792H230.639V151.621H239.869V154.766H241.377V150.215H239.869V138.531H232.096L231.815 144.053C231.636 147.812 230.843 149.423 229.974 150.215H229.13V154.792ZM231.866 150.215C232.659 148.962 233.17 146.917 233.323 144.053L233.528 139.937H238.36V150.215H231.866ZM246.457 151.852C248.17 151.852 249.065 150.931 249.372 150.292H249.449V151.621H250.957V145.153C250.957 142.033 248.58 141.675 247.327 141.675C245.844 141.675 244.156 142.187 243.389 143.977L244.821 144.488C245.153 143.772 245.94 143.005 247.378 143.005C248.765 143.005 249.449 143.74 249.449 144.999V145.05C249.449 145.779 248.707 145.715 246.918 145.945C245.096 146.182 243.108 146.585 243.108 148.835C243.108 150.752 244.591 151.852 246.457 151.852ZM246.688 150.496C245.486 150.496 244.616 149.96 244.616 148.911C244.616 147.761 245.665 147.403 246.841 147.249C247.48 147.173 249.193 146.994 249.449 146.687V148.067C249.449 149.295 248.477 150.496 246.688 150.496Z" fill="white"/>
<path d="M62.125 82H70.3409C74.1335 82 76.4773 79.929 76.4773 77.0568C76.4773 74.5938 74.6619 72.983 72.4205 72.8977V72.7273C74.4403 72.3267 75.7955 70.8352 75.7955 68.9091C75.7955 66.25 73.6818 64.5455 69.6932 64.5455H62.125V82ZM66.8636 78.2159V74.5341H69.1477C70.5881 74.5341 71.4659 75.2159 71.4659 76.4432C71.4659 77.6108 70.6733 78.2159 69.0795 78.2159H66.8636ZM66.8636 71.6023V68.2614H68.875C70.0511 68.2614 70.9205 68.858 70.9205 69.9318C70.9205 71.0057 70.0511 71.6023 68.8068 71.6023H66.8636ZM82.6562 72.4545V68.9091H78.2244V82H84.8722C88.6051 82 90.8892 80.2188 90.9062 77.2955C90.8892 74.2869 88.6051 72.4545 84.8722 72.4545H82.6562ZM91.8608 82H96.5653V68.9091H91.8608V82ZM82.6562 75.9659H84.8722C85.8352 75.9659 86.5256 76.5028 86.5426 77.2614C86.5256 77.9773 85.8352 78.4886 84.8722 78.4886H82.6562V75.9659ZM106.588 86.892C109.878 86.892 111.42 85.2386 112.145 83.0909L116.918 68.9091H111.974L109.827 77.9773H109.69L107.577 68.9091H102.668L107.27 82.5795L107.168 82.8182C106.784 83.4915 105.94 83.5 104.781 83.0909L103.759 86.4318C104.491 86.7216 105.506 86.892 106.588 86.892ZM118.256 82H124.869C128.551 82 130.528 80.7727 130.528 78.3864C130.528 76.8864 129.301 75.3523 126.335 75.2159C128.483 74.875 129.642 73.7841 129.642 72.4886C129.642 70.1023 127.494 68.9091 123.983 68.9091H118.256V82ZM122.619 78.6932V76.6136H124.869C125.628 76.6136 126.097 77.0142 126.097 77.6705C126.097 78.3097 125.628 78.6932 124.869 78.6932H122.619ZM122.619 74.2273V72.3182H123.983C124.784 72.3182 125.278 72.6761 125.278 73.2727C125.278 73.8693 124.844 74.2273 124.119 74.2273H122.619ZM138.614 82.2386C142.245 82.2386 144.58 80.5 145.023 77.7727H140.728C140.455 78.5142 139.68 78.9318 138.717 78.9318C137.319 78.9318 136.501 78.0114 136.501 76.75V76.5455H145.023V75.4545C145.023 71.2869 142.467 68.7386 138.512 68.7386C134.455 68.7386 131.864 71.4318 131.864 75.4886C131.864 79.7244 134.421 82.2386 138.614 82.2386ZM136.501 73.9545C136.526 72.821 137.464 72.0455 138.614 72.0455C139.782 72.0455 140.668 72.8295 140.694 73.9545H136.501ZM146.943 86.9091H151.648V79.8523H151.716C152.261 81.1818 153.523 82.1705 155.364 82.1705C158.159 82.1705 160.511 79.9886 160.511 75.4545C160.511 70.7159 157.989 68.7386 155.398 68.7386C153.455 68.7386 152.227 69.8636 151.716 71.1932H151.614V68.9091H146.943V86.9091ZM151.545 75.4545C151.545 73.5114 152.33 72.3523 153.625 72.3523C154.92 72.3523 155.67 73.5114 155.67 75.4545C155.67 77.3977 154.92 78.5568 153.625 78.5568C152.33 78.5568 151.545 77.3636 151.545 75.4545ZM168.755 82.2386C172.386 82.2386 174.721 80.5 175.164 77.7727H170.869C170.596 78.5142 169.82 78.9318 168.857 78.9318C167.46 78.9318 166.641 78.0114 166.641 76.75V76.5455H175.164V75.4545C175.164 71.2869 172.607 68.7386 168.653 68.7386C164.596 68.7386 162.005 71.4318 162.005 75.4886C162.005 79.7244 164.562 82.2386 168.755 82.2386ZM166.641 73.9545C166.667 72.821 167.604 72.0455 168.755 72.0455C169.923 72.0455 170.809 72.8295 170.835 73.9545H166.641ZM181.516 68.9091H177.084V82H181.516V77.1591H184.788V82H189.186V68.9091H184.788V73.6477H181.516V68.9091ZM195.859 72.4545V68.9091H191.428V82H198.075C201.808 82 204.092 80.2188 204.109 77.2955C204.092 74.2869 201.808 72.4545 198.075 72.4545H195.859ZM205.064 82H209.768V68.9091H205.064V82ZM195.859 75.9659H198.075C199.038 75.9659 199.729 76.5028 199.746 77.2614C199.729 77.9773 199.038 78.4886 198.075 78.4886H195.859V75.9659ZM215.589 76.5455H219.612V76.1364C219.612 74.7812 220.251 74.0994 221.487 73.375C223.149 72.4034 224.283 71.1847 224.283 69.1136C224.283 65.9091 221.581 64.3068 217.942 64.3068C214.626 64.3068 211.874 65.875 211.839 69.625H216.203C216.203 68.6449 216.987 67.9545 217.908 67.9545C218.76 67.9545 219.442 68.5341 219.442 69.3864C219.442 70.3409 218.615 70.929 217.533 71.6364C216.263 72.4631 215.589 73.3324 215.589 76.1364V76.5455ZM217.669 82.2727C218.922 82.2727 220.038 81.2159 220.055 79.8864C220.038 78.5909 218.922 77.5341 217.669 77.5341C216.348 77.5341 215.266 78.5909 215.283 79.8864C215.266 81.2159 216.348 82.2727 217.669 82.2727Z" fill="black"/>
<defs>
<filter id="filter0_d_109_224" x="0" y="0" width="480" height="231" filterUnits="userSpaceOnUse" color-interpolation-filters="sRGB">
<feFlood flood-opacity="0" result="BackgroundImageFix"/>
<feColorMatrix in="SourceAlpha" type="matrix" values="0 0 0 0 0 0 0 0 0 0 0 0 0 0 0 0 0 0 127 0" result="hardAlpha"/>
<feOffset/>
<feGaussianBlur stdDeviation="12.5"/>
<feColorMatrix type="matrix" values="0 0 0 0 0 0 0 0 0 0 0 0 0 0 0 0 0 0 0.15 0"/>
<feBlend mode="normal" in2="BackgroundImageFix" result="effect1_dropShadow_109_224"/>
<feBlend mode="normal" in="SourceGraphic" in2="effect1_dropShadow_109_224" result="shape"/>
</filter>
</defs>
</svg>
